<svg width="341" height="341" viewBox="0 0 341 341" fill="none" xmlns="http://www.w3.org/2000/svg">
<mask id="mask0_352_3" style="mask-type:luminance" maskUnits="userSpaceOnUse" x="236" y="184" width="57" height="74">
<path d="M236.105 257.738H292.244V184.868H236.105V257.738Z" fill="white"/>
</mask>
<g mask="url(#mask0_352_3)">
<path d="M237.098 251.2C239.869 253.02 242.896 254.416 246.078 255.342C258.922 259.079 272.862 255.238 281.647 245.143C288.968 236.729 291.39 225.871 291.245 215.871C291.104 206.174 288.348 196.323 280.171 190.076C272.848 184.481 262.611 184.243 256.327 190.647C252.474 194.572 251.2 200.413 253.546 205.348C254.414 207.173 255.757 208.732 257.434 209.86C258.608 210.38 259.97 210.232 261.005 209.472C264.46 206.934 261.758 201.596 264.043 198.336C267.993 192.703 277.677 197.294 279.945 208.005C282.572 220.418 281.409 234.045 271.651 241.695C265.258 246.707 256.73 247.492 248.772 245.704C245.134 244.886 241.631 243.554 238.369 241.747L237.098 251.2Z" fill="#C72533"/>
</g>
<mask id="mask1_352_3" style="mask-type:luminance" maskUnits="userSpaceOnUse" x="171" y="146" width="73" height="134">
<path d="M171.219 279.273H243.989V146.63H171.219V279.273Z" fill="white"/>
</mask>
<g mask="url(#mask1_352_3)">
<path d="M217.451 278.28C221.631 275.705 225.409 272.527 228.66 268.849C246.326 248.866 246.619 219.728 235.244 195.185C227.948 179.443 216.273 166.095 201.361 157.229C194.232 152.991 186.226 149.573 178.184 147.624L172.869 195.391L172.212 277.622L217.451 278.28Z" fill="#C72533"/>
</g>
<mask id="mask2_352_3" style="mask-type:luminance" maskUnits="userSpaceOnUse" x="132" y="128" width="81" height="152">
<path d="M132.426 279.689H212.184V128.838H132.426V279.689Z" fill="white"/>
</mask>
<g mask="url(#mask2_352_3)">
<path d="M209.895 278.123C202.149 269.322 198.63 257.577 200.261 245.966C202.232 231.926 211.649 219.538 211.173 205.277C210.844 195.423 205.877 186.592 199.77 178.878C193.023 170.355 184.728 162.826 180.369 152.768C179.623 151.045 179.005 149.27 178.522 147.456C171.389 145.187 164.698 141.715 158.737 137.189C156.379 135.398 154.151 133.45 152.083 131.387L141.755 129.831L133.42 195.149L136.126 278.695L209.895 278.123Z" fill="white"/>
</g>
<mask id="mask3_352_3" style="mask-type:luminance" maskUnits="userSpaceOnUse" x="88" y="60" width="84" height="221">
<path d="M88.756 280.24H171.274V60.7601H88.756V280.24Z" fill="white"/>
</mask>
<g mask="url(#mask3_352_3)">
<path d="M141.092 278.701C136.216 266.519 136.038 253.025 140.546 240.702C144.069 231.068 150.36 221.847 157.928 214.761C164.174 208.913 171.051 203.832 170.211 195.006C170.017 192.968 169.275 191.041 168.459 189.166C163.905 178.699 156.993 169.422 152.484 158.934C149.991 153.133 148.251 146.933 148.87 140.643C149.208 137.212 150.236 133.928 151.919 130.912C149.754 129.158 148.085 126.869 147.079 124.271C146.603 123.043 146.282 121.76 146.123 120.453C149.554 115.739 151.584 110.152 151.979 104.335C152.185 101.31 151.94 98.2716 151.254 95.3184C152.765 88.9712 153.929 82.6181 154.793 76.151C155.189 73.1847 155.189 70.205 155.013 67.5382C154.922 66.1439 154.68 64.8145 153.513 64.0541C152.238 63.2228 150.682 63.6972 149.311 64.366C146.683 65.6484 144.23 67.5412 141.99 69.5769C137.916 73.28 134.193 77.3408 130.862 81.7242C128.066 80.8623 125.181 80.3225 122.263 80.1152C119.473 79.9169 116.67 80.0241 113.903 80.4346C110.782 76.6755 107.445 73.1011 103.909 69.7293C101.279 67.2213 98.5363 64.8235 95.5105 62.809C94.4061 62.0738 93.1236 61.4151 91.9346 61.9459C90.6375 62.5251 90.3329 64.0925 90.2021 65.5438C89.7975 70.0318 89.6326 74.5404 89.8369 79.0422C90.0944 84.7144 90.9364 90.3451 92.3497 95.8444C92.0971 97.4057 91.9425 98.9812 91.8866 100.562C91.5986 108.716 93.9068 116.751 98.4784 123.509C97.2938 128.794 96.1355 134.084 95.0036 139.379C94.0691 143.752 93.1507 148.144 92.9592 152.613C92.544 162.309 95.5013 171.669 98.8309 180.703C103.737 194.015 109.532 206.988 116.373 219.418C127.352 239.367 131.018 263.2 113.716 268.674C110.581 269.666 106.761 269.929 105.552 272.988C104.207 276.389 107.2 279.914 110.774 279.138L141.092 278.701Z" fill="#52B969"/>
</g>
</svg>
